<svg width="36" height="36" viewBox="0 0 36 36" fill="none" xmlns="http://www.w3.org/2000/svg">
<path fill-rule="evenodd" clip-rule="evenodd" d="M25.0578 1.5C30.4983 1.5 34.1538 5.319 34.1538 11.0025V24.2475C34.1538 29.931 30.4983 33.75 25.0578 33.75H10.9998C5.55931 33.75 1.90381 29.931 1.90381 24.2475V11.0025C1.90381 5.319 5.55931 1.5 10.9998 1.5H25.0578ZM25.0578 3.75H10.9998C6.84181 3.75 4.15381 6.5955 4.15381 11.0025V24.2475C4.15381 28.6545 6.84181 31.5 10.9998 31.5H25.0578C29.2173 31.5 31.9038 28.6545 31.9038 24.2475V11.0025C31.9038 6.5955 29.2173 3.75 25.0578 3.75ZM11.0855 13.8037C11.7065 13.8037 12.2105 14.3077 12.2105 14.9287V25.2187C12.2105 25.8397 11.7065 26.3437 11.0855 26.3437C10.4645 26.3437 9.96046 25.8397 9.96046 25.2187V14.9287C9.96046 14.3077 10.4645 13.8037 11.0855 13.8037ZM18.086 8.87775C18.707 8.87775 19.211 9.38175 19.211 10.0027V25.2172C19.211 25.8382 18.707 26.3422 18.086 26.3422C17.465 26.3422 16.961 25.8382 16.961 25.2172V10.0027C16.961 9.38175 17.465 8.87775 18.086 8.87775ZM24.9714 19.2412C25.5924 19.2412 26.0964 19.7452 26.0964 20.3662V25.2172C26.0964 25.8382 25.5924 26.3422 24.9714 26.3422C24.3504 26.3422 23.8464 25.8382 23.8464 25.2172V20.3662C23.8464 19.7452 24.3504 19.2412 24.9714 19.2412Z" fill="#32394D"/>
</svg>
