<svg width="30" height="30" viewBox="0 0 30 30" fill="none" xmlns="http://www.w3.org/2000/svg">
<path fill-rule="evenodd" clip-rule="evenodd" d="M4 15C4 8.9346 8.9346 4 15 4C21.0654 4 26 8.9346 26 15C26 21.0654 21.0654 26 15 26C8.9346 26 4 21.0654 4 15ZM5.65 15C5.65 20.1557 9.8443 24.35 15 24.35C20.1557 24.35 24.35 20.1557 24.35 15C24.35 9.8443 20.1557 5.65 15 5.65C9.8443 5.65 5.65 9.8443 5.65 15ZM12.8285 10.5989C13.1497 10.2766 13.6722 10.2755 13.9956 10.5967L17.8302 14.4159C17.9551 14.5391 18.0358 14.6989 18.063 14.87L18.0733 15C18.0733 15.2189 17.9864 15.4301 17.8302 15.5841L13.9956 19.4022C13.6722 19.7245 13.1497 19.7223 12.8285 19.4C12.5073 19.0766 12.5073 18.5541 12.8307 18.2329L16.0801 15L12.8307 11.766C12.5073 11.4448 12.5073 10.9223 12.8285 10.5989Z" fill="#32394C"/>
</svg>
