<svg width="30" height="30" viewBox="0 0 30 30" fill="none" xmlns="http://www.w3.org/2000/svg">
<path fill-rule="evenodd" clip-rule="evenodd" d="M15 4C21.0654 4 26 8.9346 26 15C26 21.0654 21.0654 26 15 26C8.9346 26 4 21.0654 4 15C4 8.9346 8.9346 4 15 4ZM15 5.65C9.8443 5.65 5.65 9.8443 5.65 15C5.65 20.1557 9.8443 24.35 15 24.35C20.1557 24.35 24.35 20.1557 24.35 15C24.35 9.8443 20.1557 5.65 15 5.65ZM17.1707 10.5997C17.493 10.9231 17.4908 11.4456 17.1685 11.7668L13.9213 14.9997L17.1685 18.2337C17.4908 18.5549 17.493 19.0763 17.1707 19.3997C17.0101 19.5625 16.7978 19.6428 16.5866 19.6428C16.3765 19.6428 16.1653 19.5625 16.0047 19.4019L12.169 15.5849C12.0139 15.4298 11.927 15.2197 11.927 14.9997C11.927 14.7808 12.0139 14.5707 12.169 14.4156L16.0047 10.5975C16.327 10.2763 16.8484 10.2763 17.1707 10.5997Z" fill="#32394C"/>
</svg>
