<svg width="36" height="36" viewBox="0 0 36 36" fill="none" xmlns="http://www.w3.org/2000/svg">
<path fill-rule="evenodd" clip-rule="evenodd" d="M25.4177 1.94141C30.8582 1.94141 34.5137 5.76041 34.5137 11.4439V24.6889C34.5137 30.3724 30.8582 34.1914 25.4177 34.1914H11.3597C5.91917 34.1914 2.26367 30.3724 2.26367 24.6889V11.4439C2.26367 5.76041 5.91917 1.94141 11.3597 1.94141H25.4177ZM25.4177 4.19141H11.3597C7.20167 4.19141 4.51367 7.0369 4.51367 11.4439V24.6889C4.51367 29.0959 7.20167 31.9414 11.3597 31.9414H25.4177C29.5772 31.9414 32.2637 29.0959 32.2637 24.6889V11.4439C32.2637 7.0369 29.5772 4.19141 25.4177 4.19141Z" fill="#32394D"/>
<g clip-path="url(#clip0_1251_148)">
<path d="M25.875 17.1774H19.0357L19.4658 19.5281H21.7886V22.6512C21.0574 22.9871 20.2401 23.1214 19.3798 23.1214C16.8849 23.1214 15.6805 21.8789 15.6805 18.2184C15.6805 14.7595 17.5301 13.3154 20.025 13.3154C21.4875 13.3154 22.4338 13.6512 23.6813 14.39L25.832 12.6438C24.7566 11.905 23.4662 11.3341 21.8316 11.0654V7.87512H20.111V10.8975C20.025 10.8975 19.982 10.8975 19.896 10.8975C19.2077 10.8975 18.5195 10.9647 17.8743 11.0654V7.87512H16.1537V11.502C13.1857 12.5095 11.25 14.793 11.25 18.2184C11.25 21.8789 12.8846 24.2296 16.0676 25.1363V28.1251H17.7882V25.4721C18.3044 25.5393 18.8636 25.5729 19.4228 25.5729C19.6379 25.5729 19.8099 25.5729 20.025 25.5393V28.1251H21.7456V25.3714C23.2081 25.1363 24.6276 24.6998 25.875 24.0953V17.1774Z" fill="#32394D"/>
</g>
<defs>
<clipPath id="clip0_1251_148">
<rect width="14.625" height="20.25" fill="white" transform="translate(11.25 7.87512)"/>
</clipPath>
</defs>
</svg>
