<svg width="11" height="19" viewBox="0 0 11 19" fill="none" xmlns="http://www.w3.org/2000/svg">
<g clip-path="url(#clip0_1251_344)">
<path d="M11.0004 9.00822H6.13013L6.43644 11.1632H8.09051V14.0263C7.56978 14.3342 6.98779 14.4574 6.37518 14.4574C4.59858 14.4574 3.74092 13.3183 3.74092 9.96258C3.74092 6.79162 5.05805 5.46782 6.83464 5.46782C7.87609 5.46782 8.54997 5.77568 9.43827 6.45297L10.9698 4.85209C10.204 4.1748 9.28511 3.65144 8.12114 3.40515V0.480469H6.8959V3.25122C6.83464 3.25122 6.80401 3.25122 6.74275 3.25122C6.25265 3.25122 5.76256 3.31279 5.3031 3.40515V0.480469H4.07786V3.80537C1.96433 4.72895 0.585938 6.8224 0.585938 9.96258C0.585938 13.3183 1.74991 15.4733 4.0166 16.3045V19.0445H5.24183V16.6124C5.6094 16.674 6.00761 16.7047 6.40581 16.7047C6.55896 16.7047 6.68149 16.7047 6.83464 16.674V19.0445H8.05988V16.52C9.10133 16.3045 10.1121 15.9043 11.0004 15.3501V9.00822Z" fill="#FFA823"/>
</g>
<defs>
<clipPath id="clip0_1251_344">
<rect width="11" height="19" fill="white"/>
</clipPath>
</defs>
</svg>
