<svg width="14" height="19" viewBox="0 0 14 19" fill="none" xmlns="http://www.w3.org/2000/svg">
<path d="M14 8.72803H7.45294L7.86471 10.9337H10.0882V13.864C9.38824 14.1791 8.60588 14.3051 7.78235 14.3051C5.39412 14.3051 4.24118 13.1393 4.24118 9.70481C4.24118 6.45937 6.01176 5.10448 8.4 5.10448C9.8 5.10448 10.7059 5.41957 11.9 6.11277L13.9588 4.4743C12.9294 3.78109 11.6941 3.24544 10.1294 2.99337V0H8.48235V2.83582C8.4 2.83582 8.35882 2.83582 8.27647 2.83582C7.61765 2.83582 6.95882 2.89884 6.34118 2.99337V0H4.69412V3.40299C1.85294 4.34826 0 6.49088 0 9.70481C0 13.1393 1.56471 15.3449 4.61176 16.1957V19H6.25882V16.5108C6.75294 16.5738 7.28824 16.6053 7.82353 16.6053C8.02941 16.6053 8.19412 16.6053 8.4 16.5738V19H10.0471V16.4163C11.4471 16.1957 12.8059 15.7861 14 15.2189V8.72803Z" fill="#2FA837"/>
</svg>
