<svg width="52" height="52" viewBox="0 0 52 52" fill="none" xmlns="http://www.w3.org/2000/svg">
<rect width="52" height="52" rx="5.80125" fill="black"/>
<g clip-path="url(#clip0_1251_239)">
<path d="M23.051 19.0922C23.051 16.693 21.0992 14.7412 18.7001 14.7412C16.3009 14.7412 14.3491 16.693 14.3491 19.0922C14.3491 21.4913 16.3009 23.4431 18.7001 23.4431C21.0992 23.4431 23.051 21.4913 23.051 19.0922ZM18.7 22.5145C16.8129 22.5145 15.2777 20.9792 15.2777 19.0922C15.2777 17.2051 16.8129 15.6698 18.7 15.6698C20.5871 15.6698 22.1223 17.2051 22.1223 19.0922C22.1223 20.9792 20.5871 22.5145 18.7 22.5145Z" fill="white"/>
<path d="M39.5072 28.1363V14.0724C39.5072 12.9043 38.557 11.9541 37.3889 11.9541H14.5148C13.3468 11.9541 12.3965 12.9043 12.3965 14.0724V18.6855C12.3965 18.9202 12.5868 19.1104 12.8214 19.1104C13.0561 19.1104 13.2463 18.9202 13.2463 18.6855V14.0724C13.2463 13.3729 13.8153 12.8039 14.5148 12.8039H22.1395V13.2797C22.1395 14.0403 22.7583 14.6592 23.519 14.6592H28.3848C29.1454 14.6592 29.7643 14.0403 29.7643 13.2797V12.8039H37.3889C38.0884 12.8039 38.6574 13.3729 38.6574 14.0724V28.1164H13.2463V20.6584C13.2463 20.4237 13.0561 20.2335 12.8214 20.2335C12.5868 20.2335 12.3965 20.4237 12.3965 20.6584V28.1363C11.8583 28.2348 11.4487 28.7065 11.4487 29.2728V30.4661C11.4487 31.1037 11.9674 31.6224 12.6051 31.6224H20.38L18.6815 39.4328C18.5286 40.0862 19.0778 40.7612 19.7486 40.7441H21.354C21.8706 40.7441 22.3193 40.3776 22.4223 39.8719L22.9775 37.3136C23.0273 37.0842 22.8817 36.858 22.6524 36.8082C22.4233 36.7585 22.1968 36.9039 22.1471 37.1333L21.5912 39.6945C21.5908 39.6968 21.5903 39.6991 21.5898 39.7013C21.5674 39.8132 21.4682 39.8943 21.3539 39.8943H19.7485C19.5653 39.8669 19.5054 39.7935 19.5127 39.6093L21.2496 31.6224H23.343L22.6887 34.637L22.2433 34.4599C22.0251 34.3729 21.7781 34.4796 21.6915 34.6976C21.6047 34.9156 21.7112 35.1627 21.9292 35.2494L24.718 36.3589C25.5136 36.6754 26.3899 36.6754 27.1855 36.3589L28.597 35.7973L29.4812 39.8718C29.5843 40.3775 30.033 40.744 30.5496 40.744H32.155C32.8258 40.7611 33.375 40.086 33.2221 39.4327L31.8493 33.12C31.7995 32.8907 31.573 32.7454 31.3438 32.7951C31.1145 32.845 30.969 33.0713 31.0189 33.3006L32.3908 39.6092C32.3981 39.7935 32.3382 39.8669 32.155 39.8942H30.5496C30.4353 39.8942 30.3361 39.813 30.3137 39.7013C30.3132 39.699 30.3127 39.6967 30.3123 39.6945L29.3974 35.4789L29.9743 35.2495C30.1923 35.1627 30.2988 34.9156 30.212 34.6976C30.1252 34.4796 29.8783 34.3732 29.6601 34.4599L29.2147 34.6371L28.5605 31.6224H39.2985C39.9361 31.6224 40.4549 31.1037 40.4549 30.466V29.2727C40.455 28.7065 40.0455 28.2348 39.5072 28.1363ZM28.9144 13.2797C28.9144 13.5717 28.6768 13.8094 28.3847 13.8094H23.519C23.2269 13.8094 22.9893 13.5718 22.9893 13.2797V12.8039H28.9144V13.2797H28.9144ZM28.4144 34.9556L26.8715 35.5694C26.2784 35.8053 25.6253 35.8053 25.0323 35.5694L23.4893 34.9556L24.2126 31.6224H27.691L28.4144 34.9556ZM39.6052 30.4662C39.6052 30.6352 39.4677 30.7727 39.2987 30.7727H28.0293C28.0292 30.7727 28.029 30.7727 28.0289 30.7727H12.6051C12.4361 30.7727 12.2985 30.6352 12.2985 30.4662V29.2728C12.2985 29.1038 12.436 28.9663 12.6051 28.9663H39.2987C39.4677 28.9663 39.6053 29.1038 39.6053 29.2728V30.4662H39.6052Z" fill="white"/>
<path d="M30.6846 19.7011L30.2361 19.2527C29.8315 18.8481 29.1732 18.8481 28.7686 19.2527L25.3305 22.6907C25.1646 22.8567 25.1646 23.1257 25.3305 23.2916C25.4964 23.4575 25.7655 23.4575 25.9314 23.2916L29.3694 19.8536C29.4427 19.7802 29.5619 19.7802 29.6352 19.8536L30.0836 20.302C30.4883 20.7066 31.1467 20.7066 31.5513 20.302L36.0255 15.8278V17.4299C36.0255 17.6646 36.2157 17.8548 36.4504 17.8548C36.685 17.8548 36.8753 17.6646 36.8753 17.4299V14.8022C36.8795 14.5739 36.6784 14.3732 36.4504 14.3771H33.8225C33.5879 14.3771 33.3976 14.5673 33.3976 14.802C33.3976 15.0367 33.5879 15.2269 33.8225 15.2269H35.4245L30.9504 19.7011C30.8771 19.7744 30.7579 19.7745 30.6846 19.7011Z" fill="white"/>
<path d="M25.123 26.338C25.123 26.8056 25.5035 27.1861 25.9711 27.1861H27.0958C27.5634 27.1861 27.9438 26.8056 27.9438 26.338V25.2133C27.9438 24.7457 27.5634 24.3652 27.0958 24.3652H25.9711C25.5035 24.3652 25.123 24.7457 25.123 25.2133V26.338ZM27.0941 25.2134L27.0962 26.3363L25.9729 26.338L25.9712 25.2151L27.0941 25.2134Z" fill="white"/>
<path d="M30.4848 24.3653C30.0172 24.3653 29.6367 24.7458 29.6367 25.2134V26.338C29.6367 26.8056 30.0172 27.1861 30.4848 27.1861H31.6094C32.077 27.1861 32.4575 26.8056 32.4575 26.338V25.2133C32.4575 24.7457 32.077 24.3652 31.6094 24.3652H30.4848V24.3653ZM30.4865 26.338L30.4848 25.2151L31.6077 25.2134L31.6097 26.3363L30.4865 26.338Z" fill="white"/>
<path d="M36.066 24.3652H34.9414C34.4737 24.3652 34.0933 24.7457 34.0933 25.2133V26.3379C34.0933 26.8056 34.4737 27.186 34.9414 27.186H36.066C36.5336 27.186 36.9141 26.8056 36.9141 26.3379V25.2133C36.9141 24.7457 36.5336 24.3652 36.066 24.3652ZM34.9431 26.3379L34.9414 25.215L36.0643 25.2133L36.0663 26.3362L34.9431 26.3379Z" fill="white"/>
<path d="M17.9674 25.4482C17.7327 25.4482 17.5425 25.6384 17.5425 25.8731C17.5425 26.1079 17.7327 26.298 17.9674 26.298H20.1989C20.4336 26.298 20.6238 26.1079 20.6238 25.8731C20.6238 25.6384 20.4336 25.4482 20.1989 25.4482H17.9674Z" fill="white"/>
<path d="M20.1506 18.5898H18.7942L18.8795 19.1959H19.3402V20.0012C19.1951 20.0878 19.033 20.1224 18.8624 20.1224C18.3676 20.1224 18.1287 19.802 18.1287 18.8583C18.1287 17.9664 18.4956 17.5941 18.9904 17.5941C19.2804 17.5941 19.4681 17.6807 19.7155 17.8712L20.1421 17.4209C19.9288 17.2304 19.6729 17.0832 19.3487 17.014V16.1914H19.0074V16.9707C18.9904 16.9707 18.9818 16.9707 18.9648 16.9707C18.8283 16.9707 18.6918 16.988 18.5638 17.014V16.1914H18.2226V17.1265C17.6339 17.3863 17.25 17.9751 17.25 18.8583C17.25 19.802 17.5742 20.4081 18.2055 20.6419V21.4125H18.5468V20.7285C18.6491 20.7458 18.76 20.7545 18.8709 20.7545C18.9136 20.7545 18.9477 20.7545 18.9904 20.7458V21.4125H19.3316V20.7025C19.6217 20.6419 19.9032 20.5294 20.1506 20.3735V18.5898Z" fill="white"/>
</g>
<defs>
<clipPath id="clip0_1251_239">
<rect width="29.0063" height="29.0063" fill="white" transform="translate(11.4482 11.8457)"/>
</clipPath>
</defs>
</svg>
