<svg width="38" height="28" viewBox="0 0 38 28" fill="none" xmlns="http://www.w3.org/2000/svg">
<g opacity="0.9">
<path d="M30.2881 6.00041H7.63207C6.73207 6.00041 6 6.73275 6 7.63248V20.661C6 21.5608 6.7318 22.2931 7.63207 22.2931H30.2881C31.1881 22.2931 31.9201 21.5608 31.9201 20.661V7.63179C31.9201 6.73179 31.1883 6 30.2881 6V6.00041ZM23.9728 13.3513L30.9485 7.51789C30.955 7.55539 30.9601 7.59343 30.9601 7.63281V20.6209L23.9728 13.3513ZM6.96021 20.6212V7.63309C6.96021 7.59345 6.9653 7.55542 6.97172 7.51792L13.9475 13.3513L6.96021 20.6212ZM7.80233 6.9611H30.1189L19.2853 16.0201C19.0975 16.1749 18.8249 16.1749 18.639 16.0227L7.80233 6.9611ZM7.63224 21.333C7.62447 21.333 7.61724 21.3311 7.60947 21.3305L14.6854 13.968L18.0258 16.7612C18.2958 16.9835 18.6272 17.095 18.959 17.095C19.2914 17.095 19.6249 16.9827 19.8976 16.7591L23.2346 13.9686L30.3111 21.3304C30.3034 21.3307 30.2961 21.3328 30.2884 21.3328L7.63224 21.333Z" fill="#32394D"/>
</g>
</svg>
