<svg width="36" height="36" viewBox="0 0 36 36" fill="none" xmlns="http://www.w3.org/2000/svg">
<path fill-rule="evenodd" clip-rule="evenodd" d="M23.8635 2.99121C28.5795 2.99121 31.7475 6.21121 31.7475 11.0031V24.7565C31.7475 29.5902 28.677 32.734 23.925 32.7639L12.3855 32.7684C7.6695 32.7684 4.5 29.5484 4.5 24.7565V11.0031C4.5 6.16784 7.5705 3.02561 12.3225 2.99719L23.862 2.99121H23.8635ZM23.8635 5.23459L12.33 5.24057C8.838 5.26151 6.75 7.41516 6.75 11.0031V24.7565C6.75 28.3683 8.8575 30.525 12.384 30.525L23.9175 30.5205C27.4095 30.4996 29.4975 28.3429 29.4975 24.7565V11.0031C29.4975 7.39123 27.3915 5.23459 23.8635 5.23459ZM23.5742 23.1423C24.1952 23.1423 24.6992 23.6448 24.6992 24.264C24.6992 24.8832 24.1952 25.3857 23.5742 25.3857H12.7442C12.1231 25.3857 11.6192 24.8832 11.6192 24.264C11.6192 23.6448 12.1231 23.1423 12.7442 23.1423H23.5742ZM23.5742 16.881C24.1952 16.881 24.6992 17.3836 24.6992 18.0027C24.6992 18.6219 24.1952 19.1244 23.5742 19.1244H12.7442C12.1231 19.1244 11.6192 18.6219 11.6192 18.0027C11.6192 17.3836 12.1231 16.881 12.7442 16.881H23.5742ZM16.8762 10.6343C17.4972 10.6343 18.0012 11.1368 18.0012 11.756C18.0012 12.3751 17.4972 12.8776 16.8762 12.8776H12.7437C12.1227 12.8776 11.6187 12.3751 11.6187 11.756C11.6187 11.1368 12.1227 10.6343 12.7437 10.6343H16.8762Z" fill="#32394D"/>
</svg>
