<svg width="52" height="52" viewBox="0 0 52 52" fill="none" xmlns="http://www.w3.org/2000/svg">
<rect width="52" height="52" rx="5.80125" fill="black"/>
<g clip-path="url(#clip0_1251_222)">
<path d="M30.1162 25.8627H26.2649L26.5072 27.5918H27.8151V29.8891C27.4033 30.1361 26.9431 30.2349 26.4587 30.2349C25.0539 30.2349 24.3757 29.3209 24.3757 26.6285C24.3757 24.0842 25.4172 23.022 26.822 23.022C27.6456 23.022 28.1784 23.2691 28.8809 23.8125L30.0919 22.528C29.4864 21.9846 28.7598 21.5646 27.8393 21.367V19.0204H26.8705V21.2435C26.822 21.2435 26.7978 21.2435 26.7494 21.2435C26.3618 21.2435 25.9743 21.2929 25.611 21.367V19.0204H24.6421V21.6882C22.9708 22.4292 21.8809 24.1089 21.8809 26.6285C21.8809 29.3209 22.8013 31.05 24.5937 31.717V33.9154H25.5625V31.964C25.8532 32.0134 26.1681 32.0381 26.4829 32.0381C26.604 32.0381 26.7009 32.0381 26.822 32.0134V33.9154H27.7909V31.8899C28.6144 31.717 29.4137 31.3959 30.1162 30.9512V25.8627Z" fill="white"/>
</g>
<path d="M35.8995 16.1005C33.2553 13.4563 29.7395 12 26 12C22.2605 12 18.7447 13.4563 16.1005 16.1005C13.4563 18.7447 12 22.2605 12 26C12 29.7395 13.4563 33.2553 16.1005 35.8995C18.7447 38.5437 22.2605 40 26 40C29.7395 40 33.2553 38.5437 35.8995 35.8995C38.5437 33.2553 40 29.7395 40 26C40 22.2605 38.5437 18.7447 35.8995 16.1005ZM34.7393 34.7393C32.4051 37.0738 29.3013 38.3594 26 38.3594C22.6987 38.3594 19.5949 37.0738 17.2607 34.7393C14.9262 32.4051 13.6406 29.3013 13.6406 26C13.6406 22.6987 14.9262 19.5949 17.2607 17.2607C19.5949 14.9262 22.6987 13.6406 26 13.6406C29.3013 13.6406 32.4051 14.9262 34.7393 17.2607C37.0738 19.5949 38.3594 22.6987 38.3594 26C38.3594 29.3013 37.0738 32.4051 34.7393 34.7393Z" fill="white"/>
<path d="M25.998 15.2842C20.0877 15.2842 15.2793 20.0926 15.2793 26.0029C15.2793 31.9132 20.0877 36.7217 25.998 36.7217C31.9084 36.7217 36.7168 31.9132 36.7168 26.0029C36.7168 20.0926 31.9084 15.2842 25.998 15.2842ZM25.998 35.081C20.9924 35.081 16.9199 31.0085 16.9199 26.0029C16.9199 20.9973 20.9924 16.9248 25.998 16.9248C31.0037 16.9248 35.0762 20.9973 35.0762 26.0029C35.0762 31.0085 31.0037 35.081 25.998 35.081Z" fill="white"/>
<defs>
<clipPath id="clip0_1251_222">
<rect width="8.23529" height="14.895" fill="white" transform="translate(21.8809 19.0205)"/>
</clipPath>
</defs>
</svg>
