<svg width="36" height="36" viewBox="0 0 36 36" fill="none" xmlns="http://www.w3.org/2000/svg">
<path fill-rule="evenodd" clip-rule="evenodd" d="M32.2308 22.2686C32.8503 22.3164 33.3138 22.8734 33.2673 23.5106L32.9823 27.3816C32.7468 30.5753 30.1263 33.0763 27.0138 33.0763H9.61383C6.50133 33.0763 3.88083 30.5753 3.64533 27.3816L3.36033 23.5106C3.31383 22.8734 3.77883 22.3164 4.39833 22.2686C5.02083 22.2454 5.55783 22.6975 5.60583 23.3362L5.88933 27.2057C6.03633 29.1991 7.67133 30.762 9.61383 30.762H27.0138C28.9563 30.762 30.5928 29.1991 30.7383 27.2057L31.0233 23.3362C31.0713 22.6975 31.6218 22.2439 32.2308 22.2686ZM20.2491 2.62012C22.5035 2.62012 24.3712 4.35778 24.6525 6.59919L27.6068 6.60053C30.7508 6.60053 33.3068 9.23728 33.3068 12.4804V17.7862C33.3068 18.1982 33.0938 18.5777 32.7503 18.7845C29.0478 21.0147 24.3576 22.3155 19.4386 22.489L19.4391 25.264C19.4391 25.9028 18.9351 26.4212 18.3141 26.4212C17.6931 26.4212 17.1891 25.9028 17.1891 25.264L17.1882 22.4894C12.274 22.3174 7.58351 21.0163 3.87828 18.7845C3.53328 18.5777 3.32178 18.1982 3.32178 17.7862V12.4649C3.32178 9.23111 5.88528 6.60053 9.03678 6.60053L11.9757 6.59919C12.257 4.35778 14.1247 2.62012 16.3791 2.62012H20.2491ZM27.6068 8.91482H9.03678C7.12578 8.91482 5.57178 10.507 5.57178 12.4649V17.112C9.13235 19.1019 13.6211 20.1925 18.2933 20.1946L18.3141 20.1926L18.3308 20.1933L19.045 20.1856C23.4637 20.0773 27.6789 18.999 31.0568 17.112V12.4804C31.0568 10.5132 29.5103 8.91482 27.6068 8.91482ZM20.2491 4.9344H16.3791C15.3691 4.9344 14.5165 5.64145 14.2647 6.59958H22.3636C22.1117 5.64145 21.2591 4.9344 20.2491 4.9344Z" fill="#32394D"/>
</svg>
