<svg width="20" height="20" viewBox="0 0 20 20" fill="none" xmlns="http://www.w3.org/2000/svg">
<path fill-rule="evenodd" clip-rule="evenodd" d="M18.5927 12.7744C18.9885 12.8055 19.2846 13.1675 19.2549 13.5817L19.0728 16.0979C18.9224 18.1738 17.2482 19.7994 15.2596 19.7994H4.14297C2.15443 19.7994 0.480218 18.1738 0.329759 16.0979L0.147676 13.5817C0.117968 13.1675 0.415051 12.8055 0.810843 12.7744C1.20855 12.7594 1.55163 13.0532 1.5823 13.4684L1.76343 15.9836C1.85734 17.2793 2.90193 18.2951 4.14297 18.2951H15.2596C16.5007 18.2951 17.5462 17.2793 17.6392 15.9836L17.8213 13.4684C17.8519 13.0532 18.2036 12.7584 18.5927 12.7744ZM10.9377 0.00292969C12.3781 0.00292969 13.5713 1.13241 13.751 2.58932L15.6385 2.5902C17.6471 2.5902 19.2801 4.30408 19.2801 6.41209V9.86092C19.2801 10.1287 19.144 10.3754 18.9246 10.5098C16.5591 11.9594 13.5626 12.8049 10.4199 12.9177L10.4202 14.7215C10.4202 15.1366 10.0982 15.4736 9.70149 15.4736C9.30474 15.4736 8.98274 15.1366 8.98274 14.7215L8.98212 12.918C5.84255 12.8062 2.84582 11.9605 0.478589 10.5098C0.258172 10.3754 0.123047 10.1287 0.123047 9.86092V6.40206C0.123047 4.30007 1.76084 2.5902 3.7743 2.5902L5.65197 2.58932C5.83169 1.13241 7.02493 0.00292969 8.46524 0.00292969H10.9377ZM15.6385 4.09449H3.7743C2.55338 4.09449 1.56055 5.12944 1.56055 6.40206V9.42267C3.83536 10.7161 6.70319 11.425 9.68817 11.4264L9.70149 11.4251L9.71213 11.4255L10.1684 11.4205C12.9915 11.3501 15.6846 10.6492 17.8426 9.42267V6.41209C17.8426 5.13345 16.8546 4.09449 15.6385 4.09449ZM10.9377 1.50722H8.46524C7.81995 1.50722 7.27524 1.9668 7.11433 2.58958H12.2887C12.1277 1.9668 11.583 1.50722 10.9377 1.50722Z" fill="white"/>
</svg>
