<svg width="37" height="37" viewBox="0 0 37 37" fill="none" xmlns="http://www.w3.org/2000/svg">
<path fill-rule="evenodd" clip-rule="evenodd" d="M19.2715 13.4809L20.186 15.414C20.275 15.6032 20.4472 15.7349 20.6476 15.7659L22.6918 16.0775C23.198 16.155 23.3984 16.803 23.0332 17.1735L21.5547 18.6772C21.4092 18.8245 21.3439 19.0369 21.3765 19.2462L21.7254 21.37C21.8115 21.8955 21.2845 22.2955 20.8332 22.0474L19.0058 21.0444C18.8261 20.9452 18.6124 20.9452 18.4328 21.0444L16.6068 22.0474C16.154 22.2955 15.627 21.8955 15.7131 21.37L16.062 19.2462C16.0961 19.0369 16.0293 18.8245 15.8839 18.6772L14.4068 17.1735C14.0416 16.803 14.242 16.155 14.7467 16.0775L16.7909 15.7659C16.9913 15.7349 17.165 15.6032 17.2541 15.414L18.167 13.4809C18.3927 13.0034 19.0459 13.0034 19.2715 13.4809Z" stroke="#32394D" stroke-width="1.74038" stroke-linecap="round" stroke-linejoin="round"/>
<path fill-rule="evenodd" clip-rule="evenodd" d="M27.9805 33.373C30.9418 33.373 33.3435 30.6065 33.3451 27.1931V27.1894V22.2688C31.3893 22.2688 29.805 20.4427 29.8035 18.1883C29.8035 15.9357 31.3877 14.1078 33.3435 14.1078H33.3451V9.18713C33.3483 5.77184 30.9498 3.00169 27.9884 2.99805H27.9789H9.46128C6.49834 2.99805 4.09667 5.76455 4.09509 9.17984V9.18167V14.2663C5.9829 14.1898 7.56557 15.892 7.63197 18.068C7.63355 18.1081 7.63513 18.1482 7.63513 18.1883C7.63671 20.439 6.05722 22.2651 4.10458 22.2688H4.09509V27.1894C4.09351 30.6029 6.49517 33.373 9.45654 33.373H9.45812H27.9805Z" stroke="#32394D" stroke-width="2.3205" stroke-linecap="round" stroke-linejoin="round"/>
</svg>
