<svg width="52" height="52" viewBox="0 0 52 52" fill="none" xmlns="http://www.w3.org/2000/svg">
<rect width="52" height="52" rx="5.80125" fill="black"/>
<path d="M25.4121 24.4445C23.6272 24.4445 21.9154 23.789 20.6533 22.622C19.3912 21.4551 18.6821 19.8725 18.6821 18.2222C18.6821 16.572 19.3912 14.9893 20.6533 13.8225C21.9155 12.6556 23.6272 12 25.4121 12C27.1971 12 28.9089 12.6555 30.171 13.8225C31.4331 14.9894 32.1422 16.572 32.1422 18.2222C32.1402 19.8718 31.4304 21.4535 30.1687 22.6199C28.9071 23.7864 27.1963 24.4426 25.4121 24.4445ZM25.4121 14.0741C24.2221 14.0741 23.0809 14.5111 22.2397 15.2891C21.3982 16.0669 20.9255 17.122 20.9255 18.2222C20.9255 19.3225 21.3982 20.3776 22.2397 21.1553C23.0809 21.9334 24.2221 22.3704 25.4121 22.3704C26.6021 22.3704 27.7434 21.9334 28.5846 21.1553C29.4261 20.3776 29.8988 19.3225 29.8988 18.2222C29.8988 17.122 29.4261 16.0669 28.5846 15.2891C27.7434 14.5111 26.6021 14.0741 25.4121 14.0741Z" fill="white"/>
<path d="M25.4121 24.4445C23.6272 24.4445 21.9154 23.789 20.6533 22.622C19.3912 21.4551 18.6821 19.8725 18.6821 18.2222C18.6821 16.572 19.3912 14.9893 20.6533 13.8225C21.9155 12.6556 23.6272 12 25.4121 12C27.1971 12 28.9089 12.6555 30.171 13.8225C31.4331 14.9894 32.1422 16.572 32.1422 18.2222C32.1402 19.8718 31.4304 21.4535 30.1687 22.6199C28.9071 23.7864 27.1963 24.4426 25.4121 24.4445ZM25.4121 14.0741C24.2221 14.0741 23.0809 14.5111 22.2397 15.2891C21.3982 16.0669 20.9255 17.122 20.9255 18.2222C20.9255 19.3225 21.3982 20.3776 22.2397 21.1553C23.0809 21.9334 24.2221 22.3704 25.4121 22.3704C26.6021 22.3704 27.7434 21.9334 28.5846 21.1553C29.4261 20.3776 29.8988 19.3225 29.8988 18.2222C29.8988 17.122 29.4261 16.0669 28.5846 15.2891C27.7434 14.5111 26.6021 14.0741 25.4121 14.0741Z" fill="white"/>
<path d="M32.1384 25.4817C31.1464 25.4773 30.1629 25.6535 29.2446 26.0002C26.6905 25.2961 23.9677 25.3093 21.4217 26.0382C18.8759 26.7669 16.6215 28.1785 14.9449 30.094C13.2681 32.0092 12.2446 34.3419 12.0042 36.7956C11.9784 37.0704 12.0711 37.3435 12.2624 37.5553C12.4537 37.7671 12.7278 37.9005 13.025 37.9259H26.653C28.5215 39.6187 31.1795 40.3398 33.7413 39.8491C36.3031 39.3581 38.4321 37.7201 39.4195 35.4801C40.4067 33.2402 40.1223 30.6928 38.6614 28.6866C37.2002 26.6801 34.7543 25.4784 32.1384 25.4815L32.1384 25.4817ZM14.4294 35.8521C14.9312 33.5051 16.3017 31.3928 18.3055 29.8788C20.309 28.3646 22.8207 27.5431 25.4085 27.5556C25.7984 27.5554 26.1879 27.5762 26.575 27.6179C25.1081 28.9776 24.2851 30.8202 24.2869 32.7408C24.2836 33.8179 24.5445 34.8815 25.0495 35.8519L14.4294 35.8521ZM36.6251 35.8521C35.566 37.1577 33.9037 37.9262 32.1384 37.9262C30.373 37.9262 28.7107 37.1577 27.6517 35.8521C26.9193 34.9568 26.5253 33.8637 26.53 32.741C26.532 31.3665 27.1236 30.0486 28.175 29.0766C29.2263 28.1047 30.6517 27.5576 32.1384 27.5558C32.4053 27.5556 32.6717 27.5762 32.9348 27.6181C34.2695 27.7933 35.4911 28.4079 36.3752 29.3491C37.259 30.2901 37.746 31.4945 37.7467 32.741C37.7515 33.8636 37.3574 34.9567 36.6251 35.8521V35.8521Z" fill="white"/>
<path d="M31.0131 34.8201C30.8644 34.8203 30.7214 34.7659 30.616 34.6687L28.9335 33.1131C28.8253 33.0166 28.7637 32.8837 28.7622 32.7446C28.761 32.6055 28.8201 32.4719 28.9265 32.3735C29.0329 32.2752 29.1776 32.2205 29.3281 32.2217C29.4785 32.2229 29.622 32.2798 29.7264 32.38L31.4089 33.9356C31.5689 34.0837 31.6167 34.3064 31.5301 34.4999C31.4435 34.6932 31.2394 34.8196 31.0131 34.8201L31.0131 34.8201Z" fill="white"/>
<path d="M31.0171 34.8186C30.7827 34.8181 30.5737 34.6829 30.4923 34.4799C30.4112 34.2767 30.475 34.0482 30.6525 33.907L34.5784 30.7959C34.8147 30.6227 35.1567 30.653 35.3528 30.8648C35.5491 31.0766 35.529 31.3938 35.3074 31.5829L31.3816 34.694C31.28 34.7743 31.1508 34.8186 31.0171 34.8186L31.0171 34.8186Z" fill="white"/>
</svg>
