<svg width="36" height="36" viewBox="0 0 36 36" fill="none" xmlns="http://www.w3.org/2000/svg">
<path fill-rule="evenodd" clip-rule="evenodd" d="M27.262 33.75C30.2233 33.75 32.625 30.9835 32.6266 27.57V27.5664V22.6457C32.6266 22.6457 32.6266 21.3794 32.625 19.125C32.625 16.8724 32.625 14.4847 32.625 14.4847H32.6266V9.56409C32.6297 6.14879 30.2312 3.37864 27.2699 3.375H27.2604H8.74279C5.77984 3.375 3.37818 6.1415 3.3766 9.5568V9.55862L3.37658 14.625C3.37658 14.625 3.37658 14.625 3.375 18.4049C3.37658 18.4449 3.375 18.5251 3.375 18.5652C3.375 18.4049 3.3766 22.6457 3.38608 22.6457H3.3766V27.5664C3.37502 30.9799 5.77668 33.75 8.73804 33.75H8.73962H27.262Z" stroke="#32394D" stroke-width="2.3205" stroke-linecap="round" stroke-linejoin="round"/>
<path d="M25.875 13.5L20.678 21.1563C20.1821 21.8868 19.0846 21.8179 18.684 21.0311L17.316 18.3439C16.9155 17.5571 15.8179 17.4882 15.322 18.2187L10.125 25.875" stroke="#32394D" stroke-width="2.3205" stroke-linecap="round" stroke-linejoin="round"/>
</svg>
