<svg width="32" height="32" viewBox="0 0 32 32" fill="none" xmlns="http://www.w3.org/2000/svg">
<g opacity="0.9">
<circle cx="16" cy="16" r="15.25" stroke="#32394D" stroke-width="1.5"/>
<path d="M23.5167 11.815C23.4323 11.4591 23.2604 11.1329 23.0184 10.8696C22.7763 10.6062 22.4728 10.4149 22.1383 10.315C20.9162 10 16.0277 10 16.0277 10C16.0277 10 11.1393 10 9.91722 10.345C9.58273 10.4449 9.27915 10.6362 9.03712 10.8996C8.79509 11.1629 8.6232 11.4891 8.5388 11.845C8.31513 13.1542 8.20573 14.4822 8.21195 15.8125C8.20398 17.1528 8.31339 18.491 8.5388 19.81C8.63185 20.1549 8.80759 20.4686 9.04906 20.7209C9.29052 20.9731 9.58954 21.1554 9.91722 21.25C11.1393 21.595 16.0277 21.595 16.0277 21.595C16.0277 21.595 20.9162 21.595 22.1383 21.25C22.4728 21.1501 22.7763 20.9588 23.0184 20.6954C23.2604 20.4321 23.4323 20.1059 23.5167 19.75C23.7386 18.4507 23.848 17.1328 23.8435 15.8125C23.8515 14.4722 23.7421 13.134 23.5167 11.815Z" stroke="#32394D" stroke-width="1.5" stroke-linecap="round" stroke-linejoin="round"/>
<path d="M14.429 18.2644L18.5145 15.8119L14.429 13.3594V18.2644Z" stroke="#32394D" stroke-width="2" stroke-linecap="round" stroke-linejoin="round"/>
</g>
</svg>
